<?xml version="1.0" encoding="UTF-8"?>
<svg xmlns="http://www.w3.org/2000/svg" xmlns:xlink="http://www.w3.org/1999/xlink" width="1603px" height="1707px" viewBox="0 0 601 640" version="1.1">
<g id="surface1">
<path style=" stroke:none;fill-rule:nonzero;fill:#ff55f8; fill-opacity:1;" d="M 243.179688 0.5 C 234.179688 1.199219 230.875 2.300781 225.324219 6.5 C 223.574219 7.800781 222.375 8.148438 217.324219 8.949219 C 210.519531 10 205.367188 11.601562 198.765625 14.75 C 195.113281 16.449219 193.265625 17.75 189.5625 21.199219 C 183.160156 27.199219 182.160156 27.25 174.058594 22.5 C 166.457031 18 159.101562 16 150.148438 16 C 137.996094 16 127.890625 20.25 119.191406 29.101562 C 111.835938 36.5 107.535156 43.800781 105.484375 52.25 C 104.183594 57.648438 104.285156 62.25 105.785156 67.949219 C 108.4375 78.101562 107.1875 80.101562 97.53125 80.75 C 94.632812 80.949219 90.878906 81.550781 89.179688 82.050781 C 83.027344 83.949219 78.324219 89.300781 75.875 97.101562 C 74.175781 102.449219 73.722656 105.398438 72.773438 115.75 C 71.074219 134.550781 69.824219 137.300781 58.320312 146.949219 C 47.265625 156.199219 43.464844 160.800781 39.214844 169.699219 C 34.761719 179.101562 33.210938 188.449219 33.660156 203.148438 C 33.960938 212.898438 34.261719 214.851562 37.210938 227.699219 C 38.0625 231.449219 38.3125 233.398438 38.011719 234 C 37.761719 234.5 36.414062 235.699219 35.0625 236.75 C 29.609375 240.699219 25.808594 246.449219 22.65625 255.351562 C 21.308594 259.148438 21.257812 259.550781 21.257812 269.898438 L 21.257812 280.5 L 19.65625 281.5 C 17.65625 282.699219 12.203125 289.550781 9.554688 294.25 C 7.300781 298.148438 4 306.550781 2.351562 312.449219 C 1.550781 315.398438 1.300781 317.75 1.300781 323 C 1.25 329.449219 1.300781 329.898438 2.652344 332.648438 C 4.402344 336.148438 7.902344 339.75 12.003906 342.300781 C 13.65625 343.300781 15.003906 344.351562 15.003906 344.601562 C 15.003906 344.851562 14.105469 346.199219 12.953125 347.601562 C 8.203125 353.601562 3.652344 362.699219 1.449219 370.5 C -0.199219 376.398438 -0.199219 386.300781 1.402344 392.449219 C 2.75 397.5 5.25 402.898438 8.003906 406.550781 C 10.703125 410.148438 18.105469 417.648438 23.257812 422.050781 C 25.558594 424.050781 28.058594 426.5 28.808594 427.550781 C 30.261719 429.699219 30.308594 431.550781 28.960938 438.851562 C 28.308594 442.398438 28.359375 442.5 29.910156 447.101562 C 31.8125 452.601562 31.859375 453.851562 30.460938 457.800781 C 29.910156 459.398438 28.757812 464.25 27.859375 468.5 C 26.507812 475.25 26.308594 477.199219 26.308594 483.75 C 26.359375 490.398438 26.507812 491.75 27.710938 495.699219 C 29.558594 501.898438 32.460938 507.449219 39.863281 518.851562 C 50.867188 535.851562 57.269531 540.898438 73.125 545.25 C 77.875 546.550781 79.226562 549.050781 80.777344 559.5 C 81.726562 566.101562 81.527344 565.351562 85.429688 574.25 C 91.628906 588.398438 93.679688 590.601562 105.886719 596.550781 C 110.335938 598.699219 115.886719 601.050781 118.1875 601.699219 C 128.09375 604.601562 138.296875 604.601562 150.199219 601.699219 C 154.101562 600.75 158.703125 599.851562 160.351562 599.648438 C 166.054688 599.101562 166.457031 599.300781 174.40625 607.148438 C 178.359375 611.050781 182.710938 615.75 184.109375 617.648438 C 188.511719 623.5 191.363281 625.601562 201.816406 630.800781 C 216.921875 638.25 222.523438 639.699219 236.578125 639.75 C 249.933594 639.75 254.585938 638.449219 260.136719 632.949219 L 263.6875 629.5 L 266.136719 629.800781 C 268.289062 630.101562 268.988281 629.898438 272.742188 628.050781 C 283.792969 622.5 289.296875 615.550781 291.398438 604.601562 C 292.296875 599.851562 292.296875 594.398438 291.347656 588.75 C 290.945312 586.25 290.597656 583.449219 290.597656 582.449219 C 290.597656 581.148438 290.195312 580.300781 289.097656 579.25 C 287.746094 577.949219 287.597656 577.5 287.597656 574.800781 C 287.597656 571.050781 290.445312 556.949219 293.097656 547.550781 C 296.097656 536.949219 296.75 532.449219 296.449219 524.75 C 296.296875 521.050781 295.847656 517.148438 295.398438 515.699219 C 294.949219 514.300781 293.046875 510.75 291.097656 507.800781 C 285.84375 499.601562 285.796875 497.75 290.746094 487.800781 C 294.097656 481.101562 295.199219 477.300781 295.847656 470.5 C 296.25 466.050781 295.25 444.25 294.347656 438.75 C 293.296875 432.101562 290.398438 420.75 287.546875 412.101562 C 285.945312 407.148438 285.144531 404.050781 285.394531 403.351562 C 285.546875 402.75 286.445312 401.199219 287.394531 399.898438 C 288.296875 398.601562 289.695312 396.351562 290.445312 394.898438 C 291.746094 392.398438 291.847656 391.898438 291.796875 386 C 291.796875 380.550781 291.597656 379.199219 290.398438 375.5 C 288.144531 368.75 285.042969 363.25 280.542969 357.949219 L 278.992188 356.101562 L 282.195312 352.199219 C 285.894531 347.601562 287.746094 344.550781 289.246094 340.601562 C 290.296875 337.851562 290.347656 337.050781 290.347656 319 C 290.398438 308.699219 290.195312 294.851562 289.996094 288.25 C 289.695312 277.25 289.496094 275.75 288.144531 270.351562 C 286.496094 263.851562 280.042969 247.398438 275.890625 239.050781 C 272.140625 231.601562 272.191406 231.898438 274.839844 230.800781 C 281.292969 228.148438 288.394531 215.351562 290.046875 203.300781 C 290.746094 198.449219 290.746094 177.351562 290.097656 171 C 289.796875 168.398438 289.046875 164.351562 288.394531 162 C 287.144531 157.699219 284.59375 146.800781 284.59375 145.851562 C 284.59375 145.550781 285.945312 144.050781 287.597656 142.449219 C 290.546875 139.648438 290.597656 139.5 290.597656 136.898438 C 290.597656 131 288.296875 126.101562 283.792969 122.101562 L 280.992188 119.648438 L 282.742188 118.550781 C 286.84375 116.050781 293.949219 106.648438 295.347656 101.851562 C 296.847656 96.75 296.046875 89.851562 293.296875 84.351562 C 292.097656 82.050781 287.746094 74.699219 283.246094 67.398438 C 281.09375 64 281.09375 62 283.292969 57.25 C 286.296875 50.800781 286.84375 47.800781 286.796875 38 C 286.796875 25 285.09375 19.449219 279.34375 13.699219 C 276.84375 11.148438 275.191406 10.101562 269.839844 7.5 C 266.238281 5.800781 261.886719 3.5 260.136719 2.351562 C 257.1875 0.449219 256.734375 0.300781 252.882812 0.199219 C 250.683594 0.148438 246.28125 0.300781 243.179688 0.5 Z M 255.835938 7.5 C 267.6875 11.648438 273.441406 15.699219 276.542969 22.148438 C 281.09375 31.699219 281.542969 45.550781 277.542969 55.601562 C 276.992188 57.050781 276.441406 58.351562 276.34375 58.449219 C 276.242188 58.550781 274.492188 57.300781 272.492188 55.648438 C 270.488281 54 267.039062 51.351562 264.839844 49.75 C 262.636719 48.148438 259.4375 45.648438 257.734375 44.199219 C 253.585938 40.648438 251.984375 39.851562 250.382812 40.5 C 248.78125 41.101562 248.683594 42.75 250.082031 45.449219 C 251.382812 48 254.183594 50.351562 259.1875 53.050781 C 267.640625 57.601562 272.640625 62.398438 279.191406 72.25 C 284.144531 79.75 287.445312 86.398438 288.144531 90.199219 C 289.144531 95.75 287.246094 101.5 281.992188 108.601562 C 277.59375 114.601562 274.339844 115.5 267.738281 112.601562 C 265.738281 111.699219 262.585938 110.351562 260.738281 109.550781 C 258.835938 108.75 255.335938 107.449219 252.835938 106.699219 C 248.78125 105.449219 247.582031 105.300781 241.082031 105.300781 C 233.277344 105.300781 227.574219 106.199219 218.773438 108.800781 C 216.320312 109.550781 211.871094 110.75 208.917969 111.550781 C 205.96875 112.351562 203.015625 113.25 202.417969 113.550781 C 200.617188 114.5 199.066406 116.101562 199.066406 117.101562 C 199.066406 117.851562 199.464844 118 201.816406 118 C 205.917969 118 210.921875 116.851562 219.074219 113.949219 C 227.726562 110.949219 232.175781 110 238.078125 110 C 243.882812 110 249.734375 111.050781 257.035156 113.449219 C 267.890625 117.050781 276.441406 121.800781 279.292969 125.898438 C 281.34375 128.898438 281.394531 130.949219 279.644531 136.699219 C 277.191406 144.601562 277.59375 149.601562 281.59375 161.5 C 284.445312 169.851562 285.09375 174.949219 285.09375 188 C 285.09375 200.449219 283.195312 209.648438 279.34375 216 C 277.59375 218.851562 272.789062 223.800781 270.640625 224.949219 C 269.539062 225.550781 269.339844 225.449219 267.289062 223.101562 C 265.1875 220.699219 261.6875 218.5 259.9375 218.5 C 257.734375 218.5 259.835938 223.75 265.589844 232.5 C 270.589844 240.050781 273.339844 245.699219 278.492188 258.5 C 284.246094 272.949219 285.042969 277.601562 285.445312 297.25 C 285.746094 315.601562 285.09375 329.5 283.59375 334.25 C 278.691406 349.75 267.589844 359.148438 242.480469 368.949219 C 231.976562 373.101562 226.777344 377.851562 231.425781 379.148438 C 232.777344 379.550781 233.476562 379.351562 236.277344 377.800781 C 238.078125 376.800781 242.628906 374.949219 246.433594 373.75 C 251.183594 372.199219 256.285156 370 262.886719 366.699219 C 270.640625 362.75 272.691406 361.898438 273.792969 362.199219 C 275.941406 362.75 279.492188 366.699219 281.34375 370.648438 C 285.09375 378.550781 285.496094 383.898438 282.894531 391.75 L 281.292969 396.75 L 279.792969 394.550781 C 276.941406 390.199219 274.542969 388.148438 271.992188 387.75 C 269.339844 387.351562 266.339844 388.148438 265.886719 389.300781 C 265.6875 389.851562 267.339844 391.898438 270.988281 395.648438 C 276.242188 401.148438 276.390625 401.398438 279.492188 408.199219 C 286.695312 424.101562 289.894531 436.800781 290.445312 451.5 C 291.046875 467 289.144531 476.050781 281.042969 496.800781 C 275.242188 511.601562 273.640625 516.898438 274.492188 518.75 C 274.839844 519.449219 275.492188 520 276.042969 520 C 278.691406 520 280.644531 517.898438 282.34375 513.25 C 282.84375 511.851562 283.394531 510.550781 283.59375 510.351562 C 284.09375 509.800781 287.847656 514.148438 289.097656 516.75 C 291.246094 521.148438 291.296875 527.449219 289.195312 532.101562 C 287.046875 536.898438 282.542969 541 275.839844 544.25 C 269.089844 547.5 265.238281 548.199219 255.136719 547.851562 C 245.433594 547.550781 240.480469 546.5 234.328125 543.5 C 229.328125 541.050781 225.824219 538 222.675781 533.25 C 219.773438 528.949219 218.773438 526.25 218.121094 520.601562 C 217.824219 518.351562 217.371094 516.050781 217.070312 515.5 C 216.023438 513.550781 213.671875 512.851562 206.320312 512.449219 C 202.46875 512.199219 198.566406 511.800781 197.617188 511.550781 C 190.863281 509.5 187.710938 503 188.210938 492 C 188.511719 485.199219 189.664062 481.148438 192.265625 477.601562 C 195.664062 472.949219 196.515625 469.898438 194.765625 468.449219 C 193.515625 467.398438 191.863281 468.449219 185.660156 474.25 C 178.910156 480.550781 174.910156 483.601562 170.308594 485.898438 C 157.101562 492.449219 141.597656 493.949219 124.042969 490.300781 C 110.4375 487.449219 101.433594 483.449219 95.78125 477.75 C 88.078125 470 79.625 452.101562 76.476562 436.898438 C 75.023438 429.699219 75.324219 423.199219 77.476562 417.699219 C 78.324219 415.5 79.027344 413.25 79.027344 412.648438 C 79.027344 411 76.976562 409.75 72.425781 408.5 C 58.070312 404.699219 49.765625 397.851562 46.265625 387.050781 C 45.015625 383.25 45.464844 380.800781 48.167969 376.449219 C 51.367188 371.148438 52.566406 366.351562 51.515625 362.601562 C 50.816406 359.851562 49.964844 359.25 47.867188 359.949219 C 45.765625 360.648438 44.113281 362.398438 42.015625 366.25 C 39.164062 371.398438 36.664062 373.5 33.261719 373.5 C 32.261719 373.5 29.308594 372.601562 26.707031 371.449219 C 24.058594 370.351562 21.457031 369.5 20.855469 369.601562 C 18.207031 369.949219 17.105469 376.050781 19.15625 379.050781 C 20.957031 381.800781 23.207031 382.550781 30.710938 383 C 34.363281 383.199219 37.8125 383.648438 38.414062 383.949219 C 39.511719 384.550781 40.113281 386.101562 41.011719 390.75 C 42.765625 399.699219 53.066406 409.898438 63.921875 413.351562 C 65.921875 414 68.324219 414.5 69.222656 414.5 C 70.125 414.5 70.972656 414.601562 71.125 414.75 C 71.273438 414.898438 70.972656 416.449219 70.421875 418.148438 C 66.871094 429.648438 70.375 444.351562 82.476562 468.398438 C 87.230469 477.851562 93.78125 485.648438 100.234375 489.449219 C 106.085938 492.898438 117.1875 495.898438 128.792969 497 C 137.644531 497.898438 152.050781 497.800781 157.253906 496.800781 C 164.605469 495.398438 172.808594 491.898438 179.410156 487.449219 C 180.558594 486.648438 181.609375 486 181.761719 486 C 181.910156 486 182.0625 489.101562 182.0625 492.851562 C 182.0625 501.25 182.859375 505.398438 185.511719 510.75 C 187.914062 515.601562 190.8125 518.699219 194.464844 520.398438 C 196.964844 521.550781 197.566406 521.601562 202.765625 521.351562 C 205.820312 521.199219 208.769531 521 209.320312 520.898438 C 210.121094 520.75 210.320312 521.148438 210.671875 523.300781 C 211.671875 530.101562 215.121094 536.5 220.824219 542.25 C 229.976562 551.5 239.578125 554.5 257.835938 553.851562 C 266.6875 553.550781 271.992188 552.601562 280.84375 549.800781 C 283.84375 548.851562 286.394531 548.148438 286.546875 548.25 C 286.996094 548.75 284.996094 555.351562 283.894531 557 C 282.542969 559.050781 276.492188 564.550781 273.089844 566.851562 C 271.839844 567.699219 268.6875 569.550781 266.089844 571 C 259.1875 574.800781 256.433594 576.75 255.433594 578.5 C 253.683594 581.449219 256.085938 582.300781 261.136719 580.550781 C 265.1875 579.148438 268.140625 577.550781 275.339844 572.800781 L 281.84375 568.5 L 281.992188 570.148438 C 282.09375 571 282.945312 575.800781 283.894531 580.75 C 287.945312 601.449219 285.296875 609.851562 271.339844 620.648438 L 266.839844 624.101562 L 266.539062 620.550781 C 266.1875 617.148438 264.886719 613.851562 263.835938 613.851562 C 263.585938 613.851562 262.335938 615.898438 261.085938 618.398438 C 258.335938 623.949219 255.933594 626.5 251.332031 628.75 C 246.28125 631.25 242.679688 632.050781 235.578125 632.351562 C 228.175781 632.648438 222.523438 631.648438 212.722656 628.398438 C 202.515625 625.050781 198.714844 622.5 186.363281 610.800781 C 180.359375 605.148438 174.207031 599.949219 171.355469 598.25 C 170.65625 597.851562 171.355469 597.300781 174.910156 595.300781 C 177.359375 593.949219 181.460938 591.351562 184.0625 589.5 C 186.664062 587.648438 190.714844 585 193.0625 583.601562 C 195.414062 582.199219 198.316406 580.300781 199.515625 579.398438 L 201.667969 577.75 L 205.96875 582 C 212.570312 588.5 220.074219 592 227.324219 592 C 229.175781 592 230.777344 591.699219 231.378906 591.300781 C 233.226562 589.898438 231.027344 588.148438 221.925781 583.601562 C 214.871094 580.148438 213.019531 578.949219 210.070312 576.148438 C 204.917969 571.351562 202.96875 567.101562 201.417969 557.398438 C 200.464844 551.75 199.867188 549.550781 198.867188 547.75 C 198.117188 546.5 197.214844 545.5 196.914062 545.648438 C 196.566406 545.75 195.914062 546.601562 195.414062 547.550781 C 194.113281 550 194.515625 556.300781 196.316406 562.449219 C 197.464844 566.449219 197.617188 567.398438 197.117188 569 C 196.515625 571.050781 191.214844 576.5 189.8125 576.5 C 188.511719 576.5 184.460938 574.25 180.308594 571.148438 C 173.859375 566.398438 171.058594 561.148438 171.058594 554.050781 C 171.058594 548.75 172.457031 544.699219 176.859375 537 C 180.859375 530.050781 181.210938 529 179.710938 527.398438 C 177.910156 525.398438 174.910156 526.699219 169.707031 531.601562 C 166.65625 534.449219 162.402344 536.550781 156.953125 537.949219 C 152 539.199219 149.25 539.351562 144.398438 538.5 C 140.195312 537.75 139.394531 538 139.898438 540.050781 C 140.398438 541.800781 144.046875 545.449219 145.949219 546.050781 C 147.597656 546.5 155.652344 546.449219 160.253906 545.898438 C 161.554688 545.75 161.804688 545.949219 162.105469 547.25 C 162.304688 548.050781 162.804688 549.601562 163.253906 550.648438 C 163.703125 551.699219 164.753906 555.5 165.554688 559.101562 C 166.40625 562.699219 167.605469 566.648438 168.304688 567.949219 C 171.605469 574 177.609375 579.351562 182.359375 580.550781 C 183.5625 580.851562 184.5625 581.25 184.5625 581.449219 C 184.5625 582.148438 176.558594 587.648438 172.507812 589.75 C 156.101562 598.25 134.09375 599.898438 116.089844 594 C 104.382812 590.199219 97.734375 584.398438 92.230469 573.199219 C 89.980469 568.601562 89.03125 565.851562 86.828125 557.148438 L 84.226562 546.648438 L 91.230469 546.351562 C 97.582031 546.101562 105.535156 545.050781 107.734375 544.199219 C 108.386719 543.949219 108.535156 544.25 108.535156 546.050781 C 108.535156 553.050781 111.085938 559.800781 114.988281 563.5 C 120.140625 568.351562 127.242188 570.25 139.046875 569.898438 C 144.246094 569.75 146.148438 569.550781 147.398438 568.851562 C 150.449219 567.199219 150.75 564.648438 148.050781 563.25 C 147 562.699219 144.898438 562.5 140.195312 562.5 C 128.941406 562.5 123.992188 561.050781 119.589844 556.550781 C 116.289062 553.199219 114.539062 549.550781 114.539062 546.148438 C 114.539062 543.800781 114.738281 543.300781 116.4375 541.449219 C 117.4375 540.300781 120.539062 537.648438 123.292969 535.601562 C 132.492188 528.648438 136.644531 524.398438 137.546875 521 C 138.195312 518.648438 137.796875 517.5 136.296875 517.5 C 134.792969 517.5 132.34375 519.351562 125.84375 525.449219 C 112.9375 537.449219 103.433594 541.050781 86.179688 540.351562 C 71.421875 539.800781 59.519531 534.5 50.917969 524.699219 C 45.015625 518 37.164062 503.699219 34.8125 495.398438 C 31.859375 485.101562 32.410156 472.898438 36.210938 463.75 L 36.914062 462.101562 L 40.164062 463.25 C 47.066406 465.75 58.570312 467.398438 63.269531 466.550781 C 67.773438 465.699219 70.125 462.800781 67.023438 461.949219 C 66.320312 461.75 63.871094 461.550781 61.519531 461.550781 C 49.214844 461.351562 42.8125 458 38.664062 449.601562 C 36.363281 445 35.960938 440.800781 37.164062 434.101562 C 39.0625 423.75 39.214844 424.050781 31.160156 420.148438 C 26.558594 417.949219 23.90625 416.300781 21.605469 414.25 C 9.253906 403.050781 4.101562 386.199219 8.203125 370.5 C 8.953125 367.601562 10.203125 363.800781 10.953125 362 C 12.203125 358.949219 18.007812 349.75 19.207031 348.851562 C 20.308594 348.050781 25.109375 349.050781 30.160156 351.050781 C 34.710938 352.898438 35.863281 353.148438 40.8125 353.449219 L 46.414062 353.800781 L 49.117188 355.898438 C 52.316406 358.351562 56.367188 363.101562 63.570312 372.75 C 72.972656 385.398438 79.078125 390.699219 87.179688 393.300781 C 94.132812 395.5 106.035156 395.5 106.035156 393.25 C 106.035156 392.25 103.234375 390.25 100.132812 389.050781 C 98.683594 388.449219 94.429688 387.199219 90.730469 386.25 C 78.675781 383.148438 75.023438 380.449219 66.722656 368.351562 C 60.371094 359.050781 59.269531 356.898438 58.820312 353 C 58.519531 350.5 58.167969 349.601562 57.019531 348.449219 C 55.320312 346.699219 53.21875 346.601562 46.414062 347.851562 C 42.164062 348.601562 41.664062 348.601562 38.3125 347.800781 C 34.210938 346.851562 24.910156 342.5 20.058594 339.300781 C 15.457031 336.199219 10.804688 331.25 9.003906 327.398438 C 7.703125 324.648438 7.503906 323.699219 7.503906 319.949219 C 7.503906 314.351562 9.101562 308.550781 12.605469 301.5 C 14.753906 297.25 15.957031 295.5 19.054688 292.351562 C 24.058594 287.300781 24.558594 287.300781 28.210938 292.101562 C 31.910156 297 34.3125 299.199219 37.164062 300.25 C 38.460938 300.75 39.761719 301.5 40.011719 301.949219 C 40.261719 302.398438 40.914062 305.351562 41.515625 308.5 C 42.113281 311.648438 42.8125 314.648438 43.113281 315.25 C 44.164062 317.25 51.71875 328.300781 53.617188 330.601562 C 56.070312 333.550781 59.871094 335.5 63.121094 335.5 C 65.171875 335.5 65.621094 335.351562 66.070312 334.300781 C 67.074219 332.148438 65.371094 329.75 59.769531 325.5 C 52.617188 320.101562 49.117188 314.550781 47.265625 305.75 C 45.714844 298.25 46.566406 290.601562 50.066406 281.75 C 52.867188 274.449219 55.167969 270.898438 60.671875 265.148438 C 66.023438 259.550781 66.472656 258.351562 63.570312 258.101562 C 60.621094 257.800781 58.71875 258.449219 56.269531 260.601562 C 50.316406 265.851562 44.816406 276 41.714844 287.449219 C 40.964844 290.101562 40.3125 292.398438 40.164062 292.648438 C 39.761719 293.300781 37.011719 291.351562 34.8125 288.949219 C 26.707031 279.949219 25.058594 263.699219 31.011719 251.199219 C 32.660156 247.75 37.460938 242.25 40.3125 240.5 C 42.414062 239.148438 42.914062 239.398438 46.214844 243.550781 C 49.265625 247.351562 52.816406 249.449219 54.917969 248.699219 C 57.320312 247.851562 56.867188 246.449219 53.167969 242.699219 C 49.214844 238.699219 46.714844 234.25 43.613281 225.699219 C 40.761719 217.898438 39.511719 211.648438 39.164062 202.75 C 38.664062 190 40.3125 180.851562 44.765625 171.75 C 47.816406 165.550781 50.765625 161.800781 59.46875 153.398438 C 69.824219 143.351562 71.972656 142.449219 78.425781 145.699219 C 83.226562 148.101562 85.277344 148.699219 86.480469 148.050781 C 88.179688 147.101562 88.230469 145.699219 86.480469 141.300781 C 84.527344 136.25 84.328125 136 81.828125 134.699219 C 77.875 132.699219 77.925781 132.800781 78.476562 119 C 78.976562 105.648438 79.578125 102.5 82.578125 97.199219 C 84.527344 93.800781 88.929688 89.699219 92.332031 88.199219 C 97.082031 86.101562 107.136719 84.148438 108.535156 85 C 109.1875 85.398438 109.035156 86.199219 107.585938 90.300781 C 106.386719 93.800781 105.785156 96.601562 105.484375 100.199219 C 104.835938 108.199219 104.933594 112.101562 105.835938 113.398438 C 106.683594 114.601562 108.636719 114.851562 109.488281 113.851562 C 109.785156 113.5 110.335938 110.101562 110.785156 106.351562 C 111.1875 102.601562 111.738281 98.550781 112.039062 97.300781 C 112.488281 95.148438 113.988281 90.398438 114.289062 90.101562 C 114.386719 90 115.089844 90.25 115.886719 90.648438 C 116.6875 91.101562 118.140625 91.550781 119.191406 91.75 C 122.039062 92.300781 123.492188 90.5 125.242188 84.25 C 125.992188 81.5 126.941406 78.75 127.292969 78.199219 C 128.34375 76.5 137.296875 72.199219 141.046875 71.5 C 147.097656 70.398438 149.5 68.351562 147 66.351562 C 146.046875 65.601562 145.347656 65.449219 143.398438 65.699219 C 139.445312 66.25 132.792969 68.800781 123.542969 73.398438 C 118.738281 75.800781 114.636719 77.800781 114.4375 77.898438 C 113.988281 78.101562 111.335938 69.699219 110.535156 65.601562 C 109.585938 61 110.136719 54.449219 111.6875 50.648438 C 114.488281 43.800781 121.890625 33.398438 126.992188 29.050781 C 133.496094 23.601562 139.394531 21.5 148.148438 21.5 C 156.601562 21.5 166.90625 24.699219 174.859375 29.800781 C 176.558594 30.851562 178.308594 31.949219 178.757812 32.25 C 179.507812 32.699219 179.359375 33.148438 177.757812 36.601562 C 175.457031 41.351562 174.707031 41.800781 168.054688 41.601562 C 164.003906 41.5 163.054688 41.648438 161.652344 42.5 C 159.601562 43.75 159.753906 44.449219 162.355469 45.75 C 163.953125 46.550781 165.304688 46.75 170.054688 46.75 L 175.808594 46.75 L 176.507812 48.75 C 176.957031 50.101562 177.257812 54.699219 177.507812 63.398438 C 177.808594 75.199219 177.859375 76.148438 178.757812 76.800781 C 180.761719 78.25 182.910156 77.25 184.511719 74.148438 C 185.363281 72.449219 185.160156 67.5 183.8125 58.25 C 182.359375 48.449219 182.261719 43.898438 183.3125 39.75 C 185.363281 31.851562 192.0625 24.5 201.515625 19.800781 C 205.96875 17.550781 213.671875 14.851562 217.472656 14.25 L 219.625 13.898438 L 217.671875 17.851562 C 215.222656 22.648438 213.820312 27.199219 213.371094 31.601562 C 212.921875 35.5 212.019531 36.898438 209.121094 38.25 C 207.46875 38.949219 206.769531 39.699219 205.71875 41.949219 C 204.519531 44.300781 204.367188 45.300781 204.417969 49 C 204.519531 59.5 209.667969 64.699219 219.824219 64.699219 C 224.125 64.699219 235.277344 63.199219 236.730469 62.449219 C 237.777344 61.851562 237.828125 60.351562 236.828125 59.5 C 236.230469 59 235.128906 58.949219 232.425781 59.25 C 225.226562 60.101562 222.574219 59.898438 219.574219 58.199219 C 215.671875 56 213.570312 53.101562 213.570312 49.949219 C 213.570312 47.699219 213.769531 47.25 215.523438 45.550781 C 217.574219 43.550781 218.222656 41.550781 218.871094 35.5 C 219.875 25.550781 225.523438 14.25 231.925781 9.398438 C 236.480469 5.949219 239.730469 4.949219 245.582031 5.199219 C 248.984375 5.351562 251.035156 5.851562 255.835938 7.5 Z M 255.835938 7.5 "/>
<path style=" stroke:none;fill-rule:nonzero;fill:#ff55f8; fill-opacity:1;" d="M 177.410156 85.75 C 173.257812 87.300781 168.15625 91.949219 164.554688 97.550781 C 161.703125 101.949219 160.902344 106.148438 161.105469 115.449219 L 161.304688 122.851562 L 159.304688 122.648438 C 153.351562 122.050781 149.050781 121.300781 146.347656 120.449219 C 142.949219 119.398438 141.246094 119.25 140.796875 120 C 140.195312 120.949219 141.996094 125.75 143.398438 127.101562 C 146.148438 129.699219 151.351562 130.75 157.402344 129.949219 C 162.453125 129.199219 163.40625 129.550781 167.304688 133.300781 C 172.007812 137.898438 177.109375 139.851562 185.460938 140.351562 C 188.261719 140.5 190.664062 140.800781 190.8125 140.949219 C 190.914062 141.148438 190.414062 143.398438 189.761719 146 C 188.3125 151.601562 188.261719 156.648438 189.664062 156.898438 C 190.113281 157 191.363281 156.199219 192.464844 155.101562 C 193.964844 153.601562 194.714844 152.199219 195.816406 148.699219 C 197.566406 143.101562 197.914062 142.449219 201.066406 138.5 C 205.867188 132.5 207.320312 128 204.417969 128 C 203.066406 128 201.917969 128.75 197.464844 132.550781 C 195.664062 134.101562 193.664062 135.550781 193.113281 135.75 C 190.613281 136.550781 179.808594 132.199219 174.40625 128.199219 C 168.207031 123.648438 166.457031 115.101562 169.707031 104.898438 C 171.007812 100.75 172.757812 97.949219 176.757812 93.648438 C 180.460938 89.601562 183.109375 86 182.761719 85.449219 C 182.359375 84.800781 179.609375 84.949219 177.410156 85.75 Z M 177.410156 85.75 "/>
<path style=" stroke:none;fill-rule:nonzero;fill:#ff55f8; fill-opacity:1;" d="M 243.429688 128.050781 C 240.128906 130.25 236.878906 134 234.828125 138.101562 C 232.726562 142.300781 232.628906 143.601562 234.328125 144.898438 L 235.578125 145.898438 L 231.675781 146.25 C 225.976562 146.800781 220.875 148.199219 215.820312 150.699219 C 206.367188 155.398438 201.46875 161.148438 192.113281 178.5 C 185.460938 190.800781 181.511719 196 175.160156 201.101562 C 166.207031 208.199219 158.003906 209.800781 147.550781 206.550781 C 142.996094 205.101562 139.996094 203.199219 134.84375 198.550781 C 132.34375 196.300781 130.09375 194.5 129.742188 194.5 C 128.742188 194.5 126.542969 199.5 126.542969 201.75 C 126.542969 208.851562 137.746094 213.398438 159.253906 215.050781 L 166.957031 215.648438 L 165.957031 217.550781 C 164.554688 220.300781 164.253906 224.601562 165.253906 228.5 C 166.40625 233.050781 169.40625 239.148438 172.507812 243.148438 L 175.160156 246.550781 L 172.808594 249.050781 C 162.355469 260.199219 166.753906 278.300781 181.660156 285.398438 C 187.914062 288.398438 191.664062 289.199219 199.617188 289.199219 L 206.367188 289.25 L 206.96875 296.75 C 207.269531 300.851562 207.617188 304.648438 207.667969 305.148438 C 207.769531 305.898438 207.117188 306.300781 204.066406 307.199219 C 188.863281 311.699219 176.457031 326.199219 175.207031 340.851562 C 174.859375 344.5 175.058594 344.449219 169.554688 342.949219 C 159.152344 340.148438 150.949219 341.601562 131.945312 349.699219 L 130.144531 350.5 L 129.042969 347.300781 C 127.691406 343.25 123.941406 337.851562 120.738281 335.351562 C 115.136719 331 108.136719 328.800781 99.785156 328.75 C 95.183594 328.75 93.980469 328.898438 92.78125 329.699219 L 91.378906 330.648438 L 92.628906 331.300781 C 93.332031 331.648438 96.933594 332.5 100.734375 333.199219 C 108.484375 334.601562 111.988281 336 115.238281 339 C 118.339844 341.851562 120.238281 345 122.539062 351.101562 C 125.890625 359.851562 128.144531 360.5 135.296875 354.75 C 139.496094 351.351562 147.949219 348 155 346.949219 C 161.902344 345.949219 173.257812 347.601562 174.957031 349.851562 C 175.308594 350.398438 175.558594 352.351562 175.558594 355.148438 C 175.558594 359.550781 177.207031 368.449219 178.910156 373.398438 C 180.160156 376.898438 185.261719 379.5 188.0625 378 C 189.613281 377.148438 189.164062 375.449219 185.960938 369.898438 C 182.511719 363.851562 181.058594 358.648438 180.710938 350.398438 C 180.359375 343.101562 180.910156 339.550781 183.160156 334.148438 C 187.863281 322.800781 196.914062 314.300781 207.167969 311.699219 C 215.070312 309.648438 220.722656 312.648438 227.574219 322.5 C 232.378906 329.351562 233.628906 329.601562 240.78125 324.800781 C 246.632812 320.851562 248.132812 320.351562 252.734375 320.601562 C 257.4375 320.800781 259.988281 322.300781 264.4375 327.398438 C 268.789062 332.351562 271.589844 334.601562 273.691406 334.699219 L 275.339844 334.75 L 275.292969 331.5 C 275.242188 327.398438 273.492188 323.398438 270.488281 320.398438 C 264.4375 314.300781 254.433594 313.5 239.578125 317.949219 C 237.777344 318.449219 235.929688 319.050781 235.476562 319.25 C 234.828125 319.5 234.328125 318.949219 233.128906 316.648438 C 229.425781 309.398438 223.425781 305.5 215.722656 305.5 L 213.171875 305.5 L 212.820312 299.648438 C 212.121094 288.851562 213.671875 284.898438 221.472656 277.148438 C 226.875 271.800781 227.476562 270.601562 225.375 269.25 C 224.273438 268.550781 223.972656 268.550781 221.421875 269.5 C 216.621094 271.300781 213.421875 274.199219 209.820312 280.101562 C 209.019531 281.398438 207.820312 282.75 207.117188 283.101562 C 204.667969 284.398438 195.113281 283.300781 189.011719 281.050781 C 182.0625 278.449219 178.007812 274.5 176.007812 268.550781 C 174.507812 264.148438 174.910156 262.148438 178.609375 255.148438 C 182.3125 248.050781 182.3125 247.648438 178.257812 241.648438 C 173.058594 233.898438 171.65625 228.851562 172.558594 221.101562 C 173.558594 212.648438 174.757812 210.550781 183.210938 201.550781 C 189.511719 194.898438 191.714844 191.699219 196.816406 181.550781 C 209.519531 156.398438 219.671875 149.949219 245.53125 150.648438 C 250.632812 150.800781 255.285156 150.699219 255.933594 150.449219 C 257.4375 149.898438 257.386719 148.449219 255.785156 146.949219 C 254.585938 145.800781 254.183594 145.75 247.78125 145.75 C 243.632812 145.75 241.082031 145.550781 241.082031 145.25 C 241.128906 143.199219 243.332031 136.851562 244.980469 134.050781 C 247.382812 130.050781 247.933594 128.25 247.082031 127.25 C 246.230469 126.25 246.082031 126.25 243.429688 128.050781 Z M 243.429688 128.050781 "/>
<path style=" stroke:none;fill-rule:nonzero;fill:#ff55f8; fill-opacity:1;" d="M 125.492188 132.648438 C 122.890625 138.300781 121.890625 144.101562 121.839844 154.25 C 121.789062 160.449219 121.992188 164.199219 122.492188 166.351562 C 123.742188 171.648438 122.039062 174.898438 112.585938 185.351562 L 107.085938 191.449219 L 104.285156 186.550781 C 99.03125 177.300781 97.132812 169.550781 98.03125 161.601562 C 99.03125 152.699219 101.234375 147.398438 105.585938 143.199219 C 109.035156 139.949219 110.035156 138.601562 110.035156 137.351562 C 110.035156 136.550781 109.785156 136.449219 108.4375 136.75 C 105.183594 137.449219 101.035156 140.148438 97.632812 143.75 C 92.480469 149.148438 91.878906 150.75 91.53125 159.601562 C 91.378906 163.601562 91.179688 167 91.03125 167.101562 C 90.878906 167.25 87.980469 167.601562 84.527344 167.898438 C 81.078125 168.199219 75.925781 169.050781 73.023438 169.75 C 63.121094 172.148438 60.171875 174 60.71875 177.398438 C 61.320312 181.351562 63.570312 181.5 69.523438 178 C 75.523438 174.449219 77.925781 173.851562 84.878906 174.101562 C 88.828125 174.25 90.730469 174.5 91.03125 174.949219 C 91.230469 175.300781 91.53125 176.648438 91.730469 177.949219 C 92.082031 180.699219 97.632812 190.648438 100.632812 193.898438 C 102.683594 196.148438 102.734375 196.351562 101.285156 199.75 C 100.933594 200.550781 98.933594 203.25 96.832031 205.648438 C 92.429688 210.75 89.828125 215.601562 87.078125 223.699219 L 85.226562 229.300781 L 80.726562 225.050781 C 75.675781 220.199219 71.824219 217.898438 66.722656 216.699219 C 61.269531 215.398438 51.515625 216.398438 51.515625 218.199219 C 51.515625 219.898438 55.417969 221.5 59.519531 221.5 C 62.320312 221.5 67.074219 222.699219 69.773438 224.050781 C 70.875 224.601562 72.925781 226.148438 74.273438 227.449219 C 75.675781 228.75 77.976562 230.800781 79.476562 231.949219 C 84.027344 235.449219 83.878906 234.699219 82.527344 245 C 81.578125 252.5 82.578125 264.5 84.878906 272.5 C 85.878906 276.101562 88.730469 282.25 90.28125 284.300781 C 90.980469 285.199219 91.53125 286.050781 91.53125 286.199219 C 91.53125 286.300781 90.78125 286.550781 89.929688 286.75 C 86.878906 287.351562 80.328125 290.898438 76.925781 293.699219 C 74.125 296.050781 73.222656 297.148438 71.421875 300.800781 C 69.625 304.5 69.273438 305.648438 69.273438 308.199219 C 69.273438 311.199219 69.324219 311.25 70.722656 311.398438 C 72.675781 311.648438 74.675781 309.601562 79.578125 302.449219 C 83.679688 296.398438 84.777344 295.398438 90.429688 292.550781 C 95.480469 290 95.933594 290.199219 100.382812 296.148438 C 103.933594 300.898438 110.4375 306.75 115.6875 309.898438 C 119.640625 312.300781 125.890625 314.898438 129.191406 315.550781 C 131.59375 316.050781 132.195312 316 133.292969 315.300781 C 136.195312 313.398438 134.542969 311.648438 126.34375 307.800781 C 107.386719 298.898438 94.632812 284.199219 89.578125 265.398438 C 84.726562 247.5 90.179688 223.75 103.683594 203.75 C 105.535156 201 109.285156 196.699219 113.289062 192.699219 C 119.339844 186.648438 120.191406 186 125.390625 183.351562 C 128.691406 181.648438 131.492188 179.851562 132.292969 178.898438 C 133.496094 177.5 133.644531 177 133.34375 174.851562 C 133.195312 173.351562 131.945312 169.949219 130.191406 166.300781 C 127.292969 160.25 127.292969 160.25 127.292969 155.5 C 127.292969 151.601562 127.640625 149.398438 129.242188 143.199219 C 131.34375 135.050781 131.394531 133.199219 129.492188 130.800781 C 127.941406 128.800781 127.140625 129.199219 125.492188 132.648438 Z M 125.492188 132.648438 "/>
<path style=" stroke:none;fill-rule:nonzero;fill:#ff55f8; fill-opacity:1;" d="M 240.832031 180.101562 C 238.929688 180.800781 235.476562 183.101562 230.125 187.199219 C 221.574219 193.800781 217.773438 195.050781 210.570312 193.75 C 208.070312 193.25 205.867188 193 205.769531 193.148438 C 205.617188 193.300781 205.417969 194.550781 205.417969 195.949219 C 205.316406 199 206.46875 200.800781 209.570312 202.351562 C 211.371094 203.300781 212.621094 203.5 216.222656 203.5 C 221.472656 203.5 223.425781 204.25 225.273438 206.898438 C 228.027344 210.949219 230.375 218.398438 230.875 224.949219 C 231.175781 229.148438 230.625 232.851562 228.277344 241.851562 C 226.925781 247.148438 226.726562 247.5 225.074219 248.398438 C 224.125 248.949219 222.222656 249.550781 220.875 249.75 C 218.523438 250.050781 216.070312 251.75 216.070312 253 C 216.070312 253.75 221.972656 253.648438 232.128906 252.648438 C 240.429688 251.898438 241.082031 251.898438 243.632812 252.699219 C 247.53125 253.949219 252.332031 256.949219 256.585938 260.75 C 261.1875 264.898438 263.085938 265.898438 264.988281 265.199219 C 267.988281 264.101562 265.636719 260.050781 258.6875 254.449219 C 252.234375 249.25 247.03125 247.5 237.730469 247.5 C 234.878906 247.5 232.578125 247.398438 232.578125 247.300781 C 232.578125 247.148438 233.027344 246.300781 233.578125 245.351562 C 235.929688 241.351562 238.078125 232.800781 238.078125 227.351562 C 238.078125 219.5 236.128906 213.050781 231.828125 206.851562 C 227.527344 200.449219 227.527344 200.550781 231.476562 196.351562 C 233.078125 194.648438 235.429688 191.949219 236.777344 190.398438 C 238.179688 188.699219 240.429688 186.75 242.230469 185.699219 C 245.78125 183.648438 247.582031 182.101562 247.582031 181.199219 C 247.582031 179.648438 243.832031 179.050781 240.832031 180.101562 Z M 240.832031 180.101562 "/>
<path style=" stroke:none;fill-rule:nonzero;fill:#ff55f8; fill-opacity:1;" d="M 208.269531 380.398438 C 204.019531 382.75 202.816406 384.699219 202.015625 390.351562 C 200.917969 398.101562 202.21875 405.800781 205.316406 410 C 206.917969 412.199219 206.46875 412.5 201.167969 412.5 C 193.914062 412.5 181.460938 409.351562 174.957031 405.898438 C 173.109375 404.898438 170.40625 402.699219 167.855469 400.101562 C 161.605469 393.648438 159.554688 393 159.554688 397.449219 C 159.554688 402.199219 161.105469 404.300781 168.257812 409.148438 C 178.757812 416.199219 186.210938 418.050781 205.316406 418.199219 L 214.820312 418.25 L 218.824219 416.300781 C 224.675781 413.398438 226.125 413.5 234.578125 417.351562 C 242.730469 421 247.433594 422.5 251.082031 422.648438 C 254.132812 422.699219 257.085938 421.75 257.085938 420.699219 C 257.085938 419.300781 254.132812 418.050781 243.929688 415.25 C 241.628906 414.601562 240.328125 413.800781 237.527344 411.25 C 232.726562 406.851562 230.328125 406.101562 223.324219 406.949219 C 215.523438 407.851562 215.171875 407.800781 213.070312 405.601562 C 210.921875 403.300781 209.417969 399 209.417969 395 C 209.417969 393.300781 210.019531 390.351562 211.019531 387.148438 C 211.921875 384.351562 212.570312 381.5 212.472656 380.898438 C 212.269531 379.449219 210.371094 379.199219 208.269531 380.398438 Z M 208.269531 380.398438 "/>
<path style=" stroke:none;fill-rule:nonzero;fill:#ff55f8; fill-opacity:1;" d="M 122.289062 390.851562 C 118.890625 394.449219 117.789062 397.601562 114.839844 411.699219 C 112.1875 424.449219 111.789062 427.851562 112.488281 431.75 C 113.636719 438 117.488281 442.75 123.742188 445.699219 C 128.992188 448.199219 131.894531 448.75 139.796875 448.75 L 146.800781 448.75 L 150.699219 446.898438 C 152.800781 445.898438 154.550781 444.800781 154.550781 444.5 C 154.550781 443.449219 156.152344 444.050781 158.652344 446.050781 C 163.953125 450.199219 173.507812 454.148438 183.5625 456.300781 C 193.863281 458.5 209.871094 458.5 220.324219 456.199219 C 222.273438 455.800781 224.425781 455.351562 225.175781 455.148438 L 226.523438 454.898438 L 226.226562 461.351562 C 225.976562 467.101562 226.074219 468.25 226.976562 471.351562 C 229.078125 478.25 234.179688 481.601562 242.628906 481.699219 C 246.230469 481.75 247.132812 481.601562 248.03125 480.800781 C 250.285156 478.800781 248.882812 477.050781 241.832031 473 C 235.628906 469.449219 234.128906 468.199219 233.027344 465.800781 C 231.925781 463.398438 231.726562 456.800781 232.628906 453.25 C 233.175781 451.148438 233.378906 450.949219 238.679688 447.898438 C 245.632812 443.898438 252.183594 439 253.585938 436.75 C 254.984375 434.5 254.632812 432.851562 252.632812 432 C 250.683594 431.199219 249.832031 431.699219 244.832031 436.449219 C 238.378906 442.601562 233.378906 445.550781 224.023438 448.648438 C 214.171875 451.949219 203.816406 452.800781 193.3125 451.25 C 179.761719 449.199219 170.257812 445.101562 162.753906 437.949219 C 158.953125 434.351562 157.652344 433.949219 155.152344 435.648438 C 150 439.199219 144.148438 440.699219 136.445312 440.398438 C 131.792969 440.25 130.894531 440.050781 127.890625 438.601562 C 123.890625 436.601562 120.992188 433.5 119.488281 429.550781 C 118.589844 427.148438 118.488281 426 118.691406 421.75 C 118.890625 417.300781 119.238281 415.75 121.941406 407.648438 C 125.339844 397.5 126.242188 392.800781 125.191406 390.800781 C 124.339844 389.148438 123.890625 389.148438 122.289062 390.851562 Z M 122.289062 390.851562 "/>
<path style=" stroke:none;fill-rule:nonzero;fill:#ff55f8; fill-opacity:1;" d="M 344.515625 0.5 C 343.8125 0.699219 342.214844 1.550781 341.011719 2.398438 C 339.761719 3.25 335.660156 5.449219 331.859375 7.25 C 326.007812 10.101562 324.457031 11.050781 321.855469 13.648438 C 316.105469 19.550781 314.40625 25.050781 314.355469 38 C 314.355469 47.800781 314.90625 50.75 317.90625 57.25 C 320.105469 62 320.105469 64 317.957031 67.550781 C 317.003906 69.050781 314.753906 72.648438 312.953125 75.550781 C 306.601562 85.800781 305.101562 89.898438 305.101562 96.5 C 305.101562 99.25 305.453125 101 306.25 103 C 308.402344 108.199219 314.703125 116.25 318.457031 118.550781 L 320.207031 119.648438 L 317.40625 122.101562 C 312.953125 126 310.601562 131 310.601562 136.601562 C 310.601562 139.550781 311.253906 141 313.203125 142.25 C 314.054688 142.800781 315.203125 143.851562 315.753906 144.550781 C 316.707031 145.851562 316.707031 145.898438 315.605469 150.800781 C 315.003906 153.550781 313.855469 158.101562 313.054688 161 C 312.253906 163.898438 311.402344 168.398438 311.105469 171 C 310.453125 177.351562 310.453125 198.449219 311.152344 203.300781 C 312.855469 215.449219 319.855469 228.148438 326.359375 230.800781 C 329.007812 231.898438 329.058594 231.601562 325.308594 239.050781 C 321.605469 246.449219 314.90625 263.300781 313.355469 269 C 312.652344 271.601562 311.855469 275.75 311.605469 278.148438 C 310.851562 284.699219 310.453125 333.5 311.152344 337.25 C 311.902344 341.550781 314.503906 346.601562 318.554688 351.648438 C 320.507812 354.050781 322.105469 356.148438 322.105469 356.300781 C 322.105469 356.449219 321.40625 357.25 320.558594 358.148438 C 316.753906 362.148438 313.105469 368.648438 310.804688 375.5 C 309.601562 379.199219 309.402344 380.550781 309.402344 386 C 309.351562 391.898438 309.453125 392.398438 310.753906 394.949219 C 311.554688 396.398438 312.804688 398.449219 313.554688 399.550781 C 316.457031 403.5 316.457031 403.550781 313.65625 412.050781 C 307.253906 431.648438 305.601562 441.800781 305.5 462.648438 C 305.402344 476.300781 305.800781 478.5 310.453125 487.800781 C 315.40625 497.75 315.355469 499.648438 310.101562 507.800781 C 305.703125 514.550781 305.050781 516.550781 304.75 524.75 C 304.453125 532.449219 305.101562 537 308.101562 547.550781 C 310.753906 556.949219 313.605469 571.050781 313.605469 574.800781 C 313.605469 577.5 313.453125 577.949219 312.105469 579.25 C 311.003906 580.300781 310.601562 581.148438 310.601562 582.449219 C 310.601562 583.449219 310.253906 586.25 309.851562 588.75 C 308.902344 594.398438 308.902344 599.851562 309.804688 604.601562 C 311.902344 615.550781 317.40625 622.5 328.460938 628.050781 C 332.210938 629.898438 332.910156 630.101562 335.0625 629.800781 L 337.511719 629.5 L 341.0625 632.949219 C 346.617188 638.449219 351.265625 639.75 364.621094 639.75 C 378.675781 639.699219 384.277344 638.25 399.382812 630.800781 C 409.835938 625.601562 412.6875 623.5 417.089844 617.648438 C 418.488281 615.75 422.839844 611.050781 426.792969 607.148438 C 434.746094 599.300781 435.144531 599.101562 440.847656 599.648438 C 442.496094 599.851562 447.097656 600.75 451 601.699219 C 462.902344 604.601562 473.109375 604.601562 483.011719 601.699219 C 485.3125 601.050781 490.863281 598.699219 495.316406 596.550781 C 507.519531 590.601562 509.570312 588.398438 515.773438 574.25 C 519.671875 565.351562 519.472656 566.101562 520.421875 559.5 C 521.972656 549.050781 523.324219 546.550781 528.074219 545.25 C 543.882812 540.949219 550.332031 535.851562 561.238281 519 C 568.140625 508.398438 571.539062 502.101562 573.089844 496.949219 C 574.691406 491.851562 575.390625 485.898438 575.042969 480.550781 C 574.691406 475.148438 572.242188 462.199219 570.691406 457.800781 C 569.339844 453.851562 569.441406 452.601562 571.289062 447.101562 C 572.839844 442.5 572.890625 442.398438 572.242188 438.851562 C 570.890625 431.550781 570.941406 429.699219 572.390625 427.550781 C 573.140625 426.449219 575.492188 424.148438 577.59375 422.351562 C 582.542969 418.148438 590.597656 410 593.199219 406.5 C 597.699219 400.5 600.449219 392.648438 601.050781 384.148438 C 601.800781 372.851562 597.097656 359.351562 588.445312 347.949219 C 587.195312 346.300781 586.195312 344.800781 586.195312 344.550781 C 586.195312 344.351562 587.546875 343.300781 589.195312 342.300781 C 593.296875 339.75 596.796875 336.148438 598.550781 332.648438 C 599.898438 329.898438 599.949219 329.449219 599.898438 323 C 599.898438 317.75 599.648438 315.398438 598.847656 312.449219 C 597.199219 306.550781 593.898438 298.148438 591.648438 294.25 C 588.996094 289.550781 583.542969 282.699219 581.542969 281.5 L 579.941406 280.5 L 579.941406 269.898438 C 579.941406 259.550781 579.894531 259.148438 578.542969 255.351562 C 575.390625 246.449219 571.589844 240.699219 566.136719 236.75 C 564.789062 235.699219 563.4375 234.5 563.1875 234 C 562.886719 233.398438 563.136719 231.449219 563.988281 227.699219 C 566.9375 214.851562 567.238281 212.898438 567.539062 203.148438 C 567.988281 188.449219 566.4375 179.101562 561.988281 169.699219 C 557.734375 160.800781 553.933594 156.199219 542.878906 146.949219 C 531.328125 137.25 530.125 134.648438 528.425781 115.75 C 527.476562 105.398438 527.023438 102.449219 525.324219 97.101562 C 522.875 89.300781 518.171875 83.949219 512.019531 82.050781 C 510.320312 81.550781 506.570312 80.949219 503.667969 80.75 C 494.015625 80.101562 492.765625 78.101562 495.414062 67.949219 C 496.914062 62.199219 497.015625 57.648438 495.664062 52.148438 C 493.8125 44.300781 489.460938 36.898438 482.710938 29.851562 C 473.558594 20.300781 463.605469 16 451.050781 16 C 442.097656 16 434.746094 18 427.140625 22.5 C 419.039062 27.25 418.039062 27.199219 411.636719 21.199219 C 407.9375 17.75 406.085938 16.449219 402.433594 14.75 C 395.832031 11.601562 390.679688 10 383.878906 8.949219 C 378.824219 8.148438 377.625 7.800781 375.875 6.5 C 370.125 2.148438 367.222656 1.25 356.867188 0.5 C 348.816406 -0.0507812 346.367188 -0.0507812 344.515625 0.5 Z M 364.621094 6.601562 C 373.375 10.550781 380.226562 21.398438 382.078125 34.25 C 383.277344 42.550781 383.578125 43.5 385.726562 45.601562 C 387.679688 47.5 387.730469 47.648438 387.527344 50.300781 C 387.230469 53.648438 385.527344 56 381.628906 58.199219 C 378.625 59.898438 375.976562 60.101562 368.773438 59.25 C 366.070312 58.949219 364.972656 59 364.371094 59.5 C 363.371094 60.351562 363.421875 61.851562 364.519531 62.449219 C 365.921875 63.199219 377.074219 64.699219 381.375 64.699219 C 391.53125 64.699219 396.683594 59.449219 396.78125 49 C 396.832031 45.300781 396.683594 44.300781 395.480469 41.949219 C 394.429688 39.699219 393.730469 38.949219 392.082031 38.25 C 389.179688 36.898438 388.277344 35.5 387.878906 31.601562 C 387.480469 27.550781 385.726562 22.199219 383.328125 17.398438 L 381.527344 13.851562 L 383.476562 14.199219 C 384.527344 14.398438 387.628906 15.25 390.378906 16.050781 C 405.085938 20.601562 415.1875 29.351562 417.9375 40.050781 C 418.9375 43.898438 418.6875 50.351562 417.140625 60.199219 C 416.039062 67.398438 415.839844 72.5 416.6875 74.148438 C 418.289062 77.25 420.441406 78.25 422.441406 76.800781 C 423.339844 76.148438 423.390625 75.199219 423.691406 63.398438 C 423.941406 54.75 424.242188 50.101562 424.691406 48.75 L 425.390625 46.75 L 431.144531 46.75 C 435.84375 46.75 437.246094 46.550781 438.847656 45.75 C 441.445312 44.449219 441.597656 43.75 439.546875 42.5 C 438.144531 41.648438 437.195312 41.5 433.144531 41.601562 C 426.492188 41.800781 425.742188 41.351562 423.441406 36.601562 C 421.839844 33.148438 421.691406 32.699219 422.441406 32.25 C 422.890625 31.949219 424.640625 30.851562 426.34375 29.800781 C 440.648438 20.648438 458.050781 18.898438 469.15625 25.5 C 476.707031 29.949219 486.8125 42.699219 489.914062 51.75 C 491.0625 55.050781 491.464844 61.75 490.664062 65.648438 C 489.863281 69.699219 487.210938 78.101562 486.761719 77.898438 C 486.5625 77.800781 482.460938 75.800781 477.660156 73.398438 C 468.40625 68.800781 461.753906 66.25 457.800781 65.699219 C 455.851562 65.449219 455.152344 65.601562 454.199219 66.351562 C 451.699219 68.351562 454.101562 70.398438 460.152344 71.5 C 463.90625 72.199219 472.855469 76.5 473.90625 78.199219 C 474.257812 78.75 475.207031 81.5 475.957031 84.25 C 477.410156 89.449219 479.109375 92 481.011719 92 C 481.808594 91.949219 483.910156 91.300781 486.160156 90.300781 C 486.761719 90.050781 487.113281 90.449219 487.511719 91.601562 C 488.863281 95.351562 489.714844 99.898438 490.414062 106.300781 C 490.8125 110.050781 491.363281 113.398438 491.714844 113.800781 C 492.5625 114.851562 494.515625 114.648438 495.363281 113.398438 C 496.265625 112.101562 496.363281 108.199219 495.714844 100.199219 C 495.414062 96.601562 494.816406 93.800781 493.613281 90.300781 C 492.164062 86.199219 492.015625 85.398438 492.664062 85 C 493.515625 84.449219 496.414062 84.800781 502.066406 86.050781 C 512.21875 88.351562 518.023438 93.5 521.023438 102.898438 C 522.171875 106.351562 522.324219 108 522.722656 119 C 523.273438 132.898438 523.273438 132.800781 519.222656 134.75 C 517.070312 135.800781 515.871094 137.699219 513.871094 143.300781 C 513.019531 145.800781 513.019531 145.949219 513.871094 147.25 C 515.019531 148.949219 516.273438 148.75 522.074219 146 C 529.726562 142.351562 531.175781 142.949219 543.179688 154.949219 C 552.832031 164.648438 555.433594 168.300781 558.484375 176.398438 C 561.335938 184.101562 561.9375 188 561.886719 199.5 C 561.886719 211.351562 561.085938 216.199219 557.585938 225.699219 C 554.484375 234.25 551.984375 238.699219 548.03125 242.699219 C 544.28125 246.5 543.882812 247.851562 546.382812 248.75 C 548.433594 249.449219 551.785156 247.449219 554.984375 243.5 C 556.386719 241.800781 557.886719 240.148438 558.386719 239.898438 C 559.535156 239.25 561.9375 240.851562 565.539062 244.648438 C 570.941406 250.449219 573.691406 258.148438 573.691406 267.5 C 573.691406 276.351562 571.238281 283.601562 566.386719 288.949219 C 564.1875 291.398438 561.4375 293.300781 561.035156 292.648438 C 560.886719 292.398438 560.386719 290.800781 559.9375 289 C 556.886719 277.148438 551.132812 266.199219 545.179688 260.851562 C 542.53125 258.449219 540.679688 257.800781 537.628906 258.101562 C 534.726562 258.351562 535.179688 259.550781 540.53125 265.148438 C 546.03125 270.898438 548.332031 274.449219 551.132812 281.75 C 555.835938 293.699219 555.835938 304.101562 551.234375 313.75 C 548.484375 319.5 546.832031 321.449219 541.332031 325.601562 C 535.828125 329.699219 534.128906 332.148438 535.128906 334.300781 C 535.578125 335.351562 536.027344 335.5 538.078125 335.5 C 541.332031 335.5 545.132812 333.550781 547.582031 330.601562 C 549.484375 328.300781 557.035156 317.25 558.085938 315.25 C 558.386719 314.648438 559.085938 311.648438 559.6875 308.5 C 560.285156 305.351562 560.9375 302.398438 561.1875 301.949219 C 561.4375 301.5 562.738281 300.75 564.039062 300.25 C 566.886719 299.199219 569.289062 297 572.992188 292.101562 C 576.390625 287.648438 577.042969 287.550781 580.941406 291.101562 C 588.144531 297.648438 593.699219 310.25 593.699219 319.949219 C 593.699219 323.699219 593.496094 324.648438 592.195312 327.398438 C 590.394531 331.25 585.746094 336.199219 581.144531 339.300781 C 576.292969 342.5 566.988281 346.851562 562.886719 347.800781 C 559.535156 348.601562 559.035156 348.601562 554.785156 347.851562 C 547.980469 346.601562 545.882812 346.699219 544.179688 348.449219 C 543.03125 349.601562 542.679688 350.5 542.378906 353 C 541.929688 356.898438 540.828125 359.050781 534.476562 368.351562 C 526.175781 380.449219 522.523438 383.148438 510.46875 386.25 C 506.769531 387.199219 502.515625 388.449219 501.066406 389.050781 C 497.964844 390.25 495.164062 392.25 495.164062 393.25 C 495.164062 395.5 507.070312 395.5 513.972656 393.300781 C 522.023438 390.699219 527.625 385.949219 536.828125 373.75 C 545.132812 362.75 548.882812 358.351562 552.082031 355.898438 L 554.785156 353.800781 L 560.386719 353.449219 C 565.339844 353.148438 566.488281 352.898438 571.039062 351.101562 C 576.84375 348.75 580.742188 348 581.992188 349.050781 C 583.496094 350.300781 588.894531 358.699219 590.246094 362 C 597.148438 378.449219 595.25 395.101562 584.894531 408.550781 C 580.894531 413.75 576.992188 416.800781 570.039062 420.148438 C 561.988281 424.050781 562.136719 423.75 564.039062 434.101562 C 565.136719 440.398438 564.789062 444.949219 562.835938 449.101562 C 558.785156 457.699219 551.882812 461.449219 540.128906 461.5 C 533.226562 461.5 531.476562 462.398438 533.675781 464.75 C 535.429688 466.601562 539.378906 467.25 545.332031 466.550781 C 551.734375 465.851562 557.035156 464.699219 561.035156 463.25 L 564.289062 462.101562 L 564.988281 463.75 C 568.738281 472.800781 569.339844 485.199219 566.4375 495.300781 C 564.789062 501 559.734375 511.300781 555.285156 518 C 545.480469 532.699219 532.976562 539.648438 515.019531 540.351562 C 498.015625 541.050781 487.664062 537.199219 475.660156 525.75 C 467.90625 518.300781 464.304688 516.101562 463.453125 518.300781 C 462.953125 519.601562 464.054688 522.699219 465.804688 524.898438 C 467.855469 527.550781 471.605469 530.851562 477.910156 535.601562 C 480.660156 537.648438 483.761719 540.300781 484.8125 541.449219 C 486.460938 543.300781 486.660156 543.800781 486.660156 546.148438 C 486.660156 549.5 484.910156 553.148438 481.710938 556.449219 C 477.207031 561.050781 472.457031 562.5 461.503906 562.5 C 456.402344 562.5 454.25 562.699219 453.152344 563.25 C 450.449219 564.648438 450.75 567.199219 453.800781 568.851562 C 455.050781 569.550781 456.953125 569.75 462.152344 569.898438 C 473.957031 570.25 481.058594 568.351562 486.210938 563.5 C 490.113281 559.800781 492.664062 553.050781 492.664062 546.050781 C 492.664062 544.25 492.8125 543.949219 493.464844 544.199219 C 495.664062 545.050781 503.617188 546.101562 509.917969 546.351562 L 516.921875 546.648438 L 514.371094 557 C 508.621094 580.101562 500.816406 589.5 483.011719 594.699219 C 475.207031 596.949219 468.90625 597.648438 459.402344 597.351562 C 447.300781 596.949219 438.445312 594.75 428.644531 589.699219 C 424.640625 587.648438 416.636719 582.148438 416.636719 581.449219 C 416.636719 581.25 417.640625 580.851562 418.839844 580.550781 C 423.589844 579.351562 429.59375 574 432.894531 567.949219 C 433.59375 566.648438 434.792969 562.699219 435.644531 559.101562 C 436.445312 555.5 437.496094 551.699219 437.945312 550.648438 C 438.394531 549.601562 438.894531 548.050781 439.097656 547.25 C 439.394531 545.949219 439.644531 545.75 440.945312 545.898438 C 445.546875 546.449219 453.601562 546.5 455.25 546.050781 C 457.152344 545.449219 460.804688 541.800781 461.304688 540.050781 C 461.804688 538 461.003906 537.75 456.800781 538.5 C 452 539.351562 449.300781 539.25 444.296875 537.949219 C 438.796875 536.550781 434.542969 534.449219 431.492188 531.601562 C 426.34375 526.75 423.539062 525.550781 421.539062 527.351562 C 419.890625 528.800781 420.390625 530.25 425.292969 538.800781 C 431.242188 549.101562 431.742188 558.101562 426.742188 565.449219 C 424.089844 569.351562 414.136719 576.5 411.386719 576.5 C 409.988281 576.5 404.683594 571.050781 404.085938 569 C 403.585938 567.398438 403.734375 566.449219 404.882812 562.449219 C 406.683594 556.300781 407.085938 550 405.785156 547.550781 C 405.285156 546.601562 404.632812 545.75 404.285156 545.648438 C 403.984375 545.5 403.085938 546.5 402.332031 547.75 C 401.332031 549.550781 400.734375 551.75 399.78125 557.398438 C 398.332031 566.398438 396.28125 571.199219 392.03125 575.351562 C 388.378906 578.949219 388.027344 579.199219 378.925781 583.75 C 370.171875 588.148438 367.972656 589.949219 369.824219 591.300781 C 370.421875 591.699219 372.023438 592 373.875 592 C 381.125 592 388.628906 588.5 395.230469 582 L 399.53125 577.75 L 401.683594 579.398438 C 402.882812 580.300781 406.085938 582.398438 408.785156 584.050781 C 411.488281 585.648438 415.6875 588.398438 418.089844 590.148438 C 420.539062 591.851562 424.339844 594.25 426.59375 595.5 L 430.644531 597.800781 L 427.441406 599.949219 C 425.691406 601.101562 420.140625 605.898438 415.089844 610.550781 C 401.785156 623 398.882812 624.949219 388.378906 628.449219 C 378.675781 631.648438 373.023438 632.648438 365.621094 632.351562 C 358.519531 632.050781 354.917969 631.25 349.867188 628.75 C 345.265625 626.5 342.863281 623.949219 340.113281 618.398438 C 338.863281 615.898438 337.664062 613.800781 337.363281 613.851562 C 336.3125 613.851562 335.011719 617.148438 334.660156 620.550781 L 334.359375 624.101562 L 329.859375 620.648438 C 315.90625 609.851562 313.253906 601.5 317.304688 580.75 C 318.257812 575.800781 319.105469 571 319.207031 570.101562 L 319.355469 568.5 L 325.359375 572.550781 C 336.410156 579.949219 344.214844 583.050781 346.113281 580.75 C 346.566406 580.199219 346.515625 579.75 345.765625 578.5 C 344.765625 576.75 342.015625 574.800781 335.113281 571 C 332.511719 569.550781 329.359375 567.699219 328.109375 566.851562 C 324.707031 564.550781 318.65625 559.050781 317.304688 557 C 316.207031 555.351562 314.203125 548.75 314.65625 548.25 C 314.804688 548.148438 317.355469 548.851562 320.355469 549.800781 C 329.359375 552.648438 334.511719 553.550781 343.714844 553.851562 C 361.820312 554.449219 371.273438 551.5 380.375 542.25 C 386.078125 536.5 389.53125 530.101562 390.53125 523.300781 C 390.878906 521.148438 391.082031 520.75 391.878906 520.898438 C 392.429688 521 395.382812 521.199219 398.433594 521.351562 C 403.632812 521.601562 404.234375 521.550781 406.734375 520.398438 C 410.1875 518.800781 413.085938 515.800781 415.339844 511.550781 C 418.1875 506.050781 418.738281 503.601562 418.988281 494.398438 C 419.140625 489.75 419.339844 486 419.441406 486 C 419.539062 486 421.140625 487 422.992188 488.199219 C 434.144531 495.351562 442.648438 497.699219 457.453125 497.601562 C 476.757812 497.550781 492.265625 494.648438 500.964844 489.449219 C 510.167969 484 517.023438 473.851562 526.074219 452.25 C 532.078125 438.050781 533.527344 427.101562 530.726562 418.050781 C 530.226562 416.398438 529.925781 414.898438 530.078125 414.75 C 530.226562 414.601562 531.078125 414.5 531.976562 414.5 C 532.828125 414.5 535.128906 414.050781 536.980469 413.449219 C 547.882812 410.101562 558.4375 399.851562 560.136719 390.898438 C 561.035156 386.199219 561.585938 384.800781 562.789062 384.050781 C 563.4375 383.648438 566.386719 383.25 570.488281 383 C 578.042969 382.550781 580.191406 381.800781 582.09375 379 C 583.09375 377.550781 583.242188 376.851562 583.042969 374.601562 C 582.695312 371.5 581.59375 369.5 580.144531 369.5 C 579.59375 369.5 577.042969 370.398438 574.441406 371.5 C 571.839844 372.601562 568.9375 373.5 567.9375 373.5 C 564.4375 373.5 562.035156 371.398438 558.9375 365.851562 C 556.085938 360.699219 552.382812 358.351562 550.433594 360.5 C 549.632812 361.351562 549.484375 362.300781 549.484375 365.148438 C 549.53125 369.601562 550.183594 371.601562 553.285156 377 C 556.035156 381.800781 556.234375 383.25 554.632812 387.898438 C 551.234375 398.050781 542.730469 404.800781 528.675781 408.550781 C 525.675781 409.351562 524.023438 410.101562 523.023438 411.050781 L 521.671875 412.449219 L 522.722656 415.101562 C 524.976562 420.648438 525.226562 421.898438 525.523438 426.75 C 525.726562 430.699219 525.574219 432.800781 524.726562 436.898438 C 521.574219 452.101562 513.121094 470 505.417969 477.75 C 499.765625 483.449219 490.761719 487.449219 477.160156 490.300781 C 459.601562 493.949219 444.097656 492.449219 430.894531 485.898438 C 426.292969 483.601562 422.289062 480.550781 415.539062 474.25 C 409.136719 468.25 407.585938 467.300781 406.285156 468.648438 C 404.835938 470.101562 405.386719 472.449219 408.335938 476.699219 C 411.738281 481.75 412.636719 484.75 412.988281 492 C 413.488281 503 410.386719 509.5 403.585938 511.550781 C 402.632812 511.800781 398.734375 512.199219 394.882812 512.449219 C 387.527344 512.851562 385.179688 513.550781 384.128906 515.5 C 383.828125 516.050781 383.378906 518.351562 383.078125 520.601562 C 382.425781 526.25 381.425781 528.949219 378.527344 533.25 C 375.375 538 371.875 541.050781 366.871094 543.5 C 359.96875 546.898438 355.417969 547.699219 344.113281 547.75 C 335.210938 547.75 334.0625 547.648438 330.859375 546.601562 C 321.757812 543.550781 314.703125 538.148438 312.003906 532.101562 C 309.902344 527.449219 309.953125 521.148438 312.105469 516.75 C 313.402344 514.101562 317.105469 509.800781 317.605469 510.351562 C 317.804688 510.550781 318.257812 511.648438 318.605469 512.75 C 320.40625 518.648438 325.160156 522.148438 326.707031 518.75 C 327.558594 516.898438 325.957031 511.601562 320.40625 497.5 C 315.453125 485 313.203125 477.851562 311.753906 470 C 310.503906 463.351562 310.554688 446.199219 311.804688 439.5 C 313.90625 428.148438 316.65625 419.351562 321.707031 408.199219 C 324.808594 401.398438 324.957031 401.148438 330.210938 395.648438 C 333.859375 391.898438 335.511719 389.851562 335.3125 389.300781 C 334.863281 388.148438 331.859375 387.351562 329.210938 387.75 C 326.660156 388.148438 324.257812 390.199219 321.40625 394.550781 L 319.90625 396.75 L 318.304688 391.75 C 317.054688 388.050781 316.65625 385.851562 316.605469 383.199219 C 316.605469 376.949219 319.804688 368.800781 323.859375 364.75 C 327.410156 361.199219 327.457031 361.199219 338.3125 366.699219 C 344.914062 370 350.015625 372.199219 354.769531 373.75 C 358.570312 374.949219 363.121094 376.800781 364.921875 377.800781 C 367.722656 379.351562 368.421875 379.550781 369.773438 379.148438 C 374.625 377.800781 369.324219 373.148438 357.46875 368.5 C 333.460938 359.050781 322.457031 349.601562 317.605469 334.25 C 316.105469 329.449219 315.40625 315.449219 315.804688 296.75 C 316.15625 277.25 316.957031 273.050781 322.707031 258.5 C 327.859375 245.648438 330.609375 240.050781 335.660156 232.398438 C 339.714844 226.199219 342.113281 221.351562 342.113281 219.25 C 342.113281 217.199219 336.960938 219.648438 333.910156 223.101562 L 331.710938 225.648438 L 330.011719 224.601562 C 327.660156 223.148438 323.058594 218.25 321.457031 215.5 C 317.957031 209.449219 316.105469 199.949219 316.105469 188 C 316.105469 174.949219 316.753906 169.851562 319.605469 161.5 C 323.609375 149.648438 324.007812 144.601562 321.605469 136.75 C 319.804688 130.949219 319.757812 130 321.15625 127.101562 C 323.308594 122.699219 332.109375 117.449219 344.015625 113.550781 C 351.417969 111.101562 357.269531 110 363.121094 110 C 369.023438 110 373.472656 110.949219 382.128906 113.949219 C 390.28125 116.851562 395.28125 118 399.382812 118 C 401.734375 118 402.132812 117.851562 402.132812 117.050781 C 402.132812 115.550781 399.332031 113.601562 395.730469 112.550781 C 393.882812 112.050781 389.578125 110.800781 386.128906 109.851562 C 377.125 107.25 374.523438 106.648438 368.574219 105.800781 C 356.71875 104.050781 349.765625 105.25 336.363281 111.398438 C 326.757812 115.75 324.058594 115.25 318.90625 108.199219 C 313.804688 101.199219 312.054688 95.800781 313.054688 90.199219 C 313.753906 86.398438 317.054688 79.75 322.007812 72.25 C 328.558594 62.398438 333.5625 57.601562 342.015625 53.050781 C 348.816406 49.398438 352.417969 45.449219 352.015625 42.101562 C 351.867188 40.949219 351.617188 40.75 350.066406 40.601562 C 348.515625 40.449219 347.765625 40.851562 345.066406 43 C 343.3125 44.398438 339.714844 47.148438 337.113281 49.101562 C 334.511719 51.101562 330.710938 54 328.710938 55.648438 C 326.707031 57.300781 324.957031 58.550781 324.859375 58.449219 C 324.457031 58 322.558594 52.75 322.058594 50.601562 C 319.105469 37.648438 321.957031 23.148438 328.808594 16.351562 C 332.660156 12.5 340.714844 8.601562 350.867188 5.699219 C 354.617188 4.648438 361.171875 5.050781 364.621094 6.601562 Z M 364.621094 6.601562 "/>
<path style=" stroke:none;fill-rule:nonzero;fill:#ff55f8; fill-opacity:1;" d="M 418.4375 85.398438 C 418.089844 86 420.640625 89.449219 424.441406 93.648438 C 428.441406 97.949219 430.191406 100.75 431.492188 104.898438 C 434.746094 115.101562 432.992188 123.648438 426.792969 128.199219 C 421.390625 132.199219 410.585938 136.550781 408.085938 135.75 C 407.535156 135.550781 405.535156 134.101562 403.734375 132.550781 C 399.28125 128.75 398.132812 128 396.78125 128 C 395.082031 128 394.832031 129.949219 396.183594 132.550781 C 396.78125 133.75 398.683594 136.550781 400.382812 138.851562 C 403.035156 142.25 403.835938 143.800781 405.183594 148.050781 C 406.484375 152.199219 407.183594 153.550781 408.734375 155.101562 C 409.835938 156.199219 411.085938 157 411.535156 156.898438 C 412.9375 156.648438 412.886719 151.601562 411.4375 146 C 410.785156 143.398438 410.285156 141.148438 410.386719 140.949219 C 410.535156 140.800781 412.9375 140.5 415.738281 140.351562 C 424.089844 139.851562 429.144531 137.898438 433.996094 133.25 C 437.945312 129.5 438.796875 129.25 443.796875 129.949219 C 449.851562 130.75 455.050781 129.699219 457.800781 127.101562 C 459.203125 125.75 461.003906 120.949219 460.402344 120 C 459.953125 119.25 458.253906 119.398438 454.800781 120.5 C 453.101562 121 449.699219 121.699219 447.300781 122 C 444.898438 122.300781 442.195312 122.601562 441.398438 122.699219 L 439.894531 122.898438 L 440.097656 115.449219 C 440.296875 105.601562 439.546875 101.898438 436.09375 96.75 C 433.246094 92.550781 428.542969 88 425.292969 86.449219 C 422.742188 85.199219 418.9375 84.648438 418.4375 85.398438 Z M 418.4375 85.398438 "/>
<path style=" stroke:none;fill-rule:nonzero;fill:#ff55f8; fill-opacity:1;" d="M 354.117188 127.25 C 353.265625 128.25 353.816406 130.050781 356.167969 134.050781 C 357.769531 136.75 360.121094 143.5 360.121094 145.449219 C 360.121094 145.601562 357.117188 145.75 353.417969 145.75 C 347.015625 145.75 346.617188 145.800781 345.414062 146.949219 C 343.8125 148.449219 343.765625 149.898438 345.265625 150.449219 C 345.914062 150.699219 350.566406 150.800781 355.667969 150.648438 C 373.023438 150.148438 382.578125 153 390.628906 161 C 395.480469 165.800781 399.433594 171.800781 404.632812 182.050781 C 409.636719 191.949219 411.6875 194.898438 418.539062 202.148438 C 426.492188 210.550781 427.691406 212.898438 428.644531 221.75 C 429.492188 229.050781 428.042969 234 422.992188 241.550781 C 418.890625 247.601562 418.890625 248.050781 422.589844 255.101562 C 424.242188 258.300781 425.742188 261.800781 425.941406 262.898438 C 426.390625 265.75 424.640625 271.101562 422.242188 274.25 C 418.289062 279.449219 408.785156 283.300781 398.933594 283.601562 C 394.53125 283.800781 393.332031 283.25 391.378906 280.101562 C 387.777344 274.199219 384.578125 271.300781 379.777344 269.5 C 377.226562 268.550781 376.925781 268.550781 375.824219 269.25 C 373.722656 270.601562 374.324219 271.800781 379.777344 277.148438 C 387.527344 284.898438 389.078125 288.851562 388.378906 299.648438 L 388.027344 305.5 L 385.476562 305.5 C 377.777344 305.5 371.722656 309.398438 368.121094 316.550781 C 366.871094 318.949219 366.371094 319.5 365.722656 319.25 C 361.46875 317.5 352.816406 315.601562 347.464844 315.199219 C 335.210938 314.300781 326.660156 320.648438 325.757812 331.300781 C 325.457031 334.75 325.808594 335.25 328.257812 334.75 C 329.410156 334.5 331.410156 332.800781 335.613281 328.5 C 342.464844 321.5 344.164062 320.5 349.214844 320.5 C 353.519531 320.5 355.117188 321.148438 361.019531 325.148438 C 367.472656 329.550781 369.121094 329.199219 373.574219 322.5 C 376.574219 318.050781 380.375 314.148438 383.378906 312.601562 C 385.476562 311.5 386.527344 311.300781 389.878906 311.300781 C 400.332031 311.351562 411.1875 319.699219 417.1875 332.300781 C 420.140625 338.5 420.789062 342 420.488281 350 C 420.140625 358.648438 418.789062 363.699219 415.238281 369.898438 C 412.039062 375.449219 411.585938 377.148438 413.136719 378 C 415.9375 379.5 421.039062 376.898438 422.289062 373.398438 C 423.941406 368.648438 425.640625 359.25 425.589844 354.851562 C 425.589844 352.25 425.792969 350.148438 426.140625 349.75 C 427.890625 347.601562 439.546875 346 446.199219 346.949219 C 453.800781 348.101562 461.304688 351.199219 467.003906 355.550781 C 473.359375 360.398438 475.609375 359.550781 478.660156 351.050781 C 480.511719 345.851562 482.160156 343 485.0625 339.898438 C 488.363281 336.351562 492.164062 334.699219 500.367188 333.199219 C 504.21875 332.5 507.867188 331.648438 508.570312 331.300781 L 509.820312 330.648438 L 508.417969 329.699219 C 507.21875 328.898438 506.019531 328.75 501.417969 328.75 C 486.8125 328.800781 475.808594 335.949219 471.90625 347.851562 L 471.105469 350.5 L 469.257812 349.699219 C 450.25 341.601562 442.046875 340.148438 431.644531 342.949219 C 426.191406 344.449219 426.34375 344.5 425.992188 340.851562 C 424.589844 326 412.335938 311.699219 397.132812 307.199219 C 394.082031 306.300781 393.429688 305.898438 393.53125 305.148438 C 393.582031 304.648438 393.929688 300.851562 394.230469 296.75 L 394.78125 289.25 L 401.582031 289.199219 C 409.535156 289.199219 413.289062 288.398438 419.539062 285.398438 C 434.445312 278.300781 438.847656 260.199219 428.390625 249.050781 L 426.042969 246.550781 L 428.492188 243.398438 C 431.242188 239.800781 434.09375 234.5 435.445312 230.5 C 436.796875 226.449219 436.695312 220.351562 435.292969 217.699219 L 434.195312 215.648438 L 441.945312 215.050781 C 463.453125 213.398438 474.65625 208.851562 474.65625 201.648438 C 474.65625 199.5 472.40625 194.5 471.457031 194.5 C 471.15625 194.5 468.855469 196.300781 466.40625 198.550781 C 461.152344 203.199219 458.152344 205.101562 453.652344 206.550781 C 443.199219 209.800781 434.996094 208.199219 426.042969 201.101562 C 419.539062 195.898438 415.9375 191.050781 408.386719 177.25 C 403.285156 167.898438 400.632812 163.699219 397.632812 160.25 C 390.730469 152.199219 380.875 147.300781 369.523438 146.25 L 365.621094 145.898438 L 366.871094 144.898438 C 368.574219 143.601562 368.472656 142.300781 366.371094 138.101562 C 364.320312 134 361.070312 130.25 357.769531 128.050781 C 355.117188 126.25 354.96875 126.25 354.117188 127.25 Z M 354.117188 127.25 "/>
<path style=" stroke:none;fill-rule:nonzero;fill:#ff55f8; fill-opacity:1;" d="M 471.707031 130.800781 C 469.855469 133.148438 469.855469 135.101562 471.855469 142.949219 C 473.957031 151.5 474.507812 156.300781 473.65625 159.5 C 473.359375 160.75 471.957031 164.199219 470.554688 167.199219 C 469.054688 170.398438 467.90625 173.601562 467.753906 174.949219 C 467.457031 178.300781 468.957031 179.851562 475.808594 183.351562 C 481.011719 186 481.859375 186.648438 487.960938 192.699219 C 495.363281 200.101562 499.917969 206.5 504.46875 215.75 C 519.273438 246.199219 515.421875 274.449219 493.714844 295.148438 C 488.164062 300.398438 482.5625 304.199219 474.859375 307.800781 C 466.65625 311.648438 465.003906 313.398438 467.90625 315.300781 C 469.007812 316 469.605469 316.050781 472.007812 315.550781 C 481.558594 313.648438 494.0625 305.199219 500.816406 296.148438 C 505.269531 290.199219 505.71875 290 510.769531 292.550781 C 516.421875 295.398438 517.523438 296.398438 521.625 302.449219 C 526.523438 309.601562 528.527344 311.648438 530.476562 311.398438 C 531.878906 311.25 531.925781 311.199219 531.925781 308.199219 C 531.925781 303.851562 528.777344 297.5 525.023438 294.300781 C 521.375 291.199219 517.171875 288.75 513.222656 287.449219 C 511.421875 286.851562 509.871094 286.300781 509.769531 286.25 C 509.667969 286.148438 510.320312 285.101562 511.171875 283.851562 C 515.222656 277.800781 517.824219 269 518.722656 258 C 519.273438 251.601562 519.074219 246.648438 517.871094 238.898438 C 517.371094 235.898438 517.972656 234.800781 521.273438 232.25 C 523.023438 230.898438 525.726562 228.601562 527.277344 227.148438 C 531.175781 223.5 536.277344 221.5 541.832031 221.5 C 545.78125 221.5 549.683594 219.851562 549.683594 218.199219 C 549.683594 216.398438 539.929688 215.398438 534.476562 216.699219 C 529.375 217.898438 525.523438 220.199219 520.472656 225.050781 L 515.972656 229.300781 L 514.121094 223.699219 C 511.421875 215.601562 508.769531 210.75 504.367188 205.648438 C 500.417969 201.101562 499.515625 199.699219 498.964844 197.351562 C 498.714844 196.25 498.964844 195.648438 500.566406 193.851562 C 503.566406 190.601562 509.121094 180.699219 509.46875 177.949219 C 509.96875 174.148438 509.820312 174.25 517.523438 174.25 C 523.972656 174.25 524.625 174.351562 527.277344 175.601562 C 528.875 176.351562 531.175781 177.648438 532.476562 178.5 C 535.027344 180.300781 538.230469 181 539.429688 180 C 540.578125 179.050781 540.929688 176.199219 539.980469 174.800781 C 538.179688 172.050781 527.527344 168.851562 516.671875 167.898438 C 513.222656 167.601562 510.320312 167.25 510.167969 167.101562 C 510.019531 167 509.820312 163.601562 509.667969 159.601562 C 509.320312 150.75 508.71875 149.148438 503.566406 143.75 C 500.167969 140.148438 496.015625 137.449219 492.8125 136.75 C 491.3125 136.449219 491.164062 136.5 491.164062 137.648438 C 491.164062 138.550781 492.214844 139.949219 494.863281 142.5 C 499.167969 146.648438 501.117188 150.351562 502.417969 156.75 C 504.617188 167.300781 502.96875 175.949219 496.617188 187.101562 L 494.113281 191.449219 L 488.8125 185.601562 C 482.261719 178.300781 479.359375 174.351562 478.609375 171.398438 C 478.058594 169.449219 478.109375 168.5 478.910156 165.101562 C 479.660156 161.75 479.757812 159.800781 479.507812 152.898438 C 479.160156 143.699219 478.058594 137.699219 475.707031 132.648438 C 474.058594 129.199219 473.257812 128.800781 471.707031 130.800781 Z M 471.707031 130.800781 "/>
<path style=" stroke:none;fill-rule:nonzero;fill:#ff55f8; fill-opacity:1;" d="M 354.316406 180.199219 C 352.96875 181.25 353.71875 182.300781 357.617188 184.75 C 360.96875 186.851562 362.820312 188.550781 368.121094 194.5 C 372.222656 199.101562 373.125 200.449219 372.722656 201.449219 C 372.574219 201.898438 371.023438 204.351562 369.324219 206.898438 C 365.070312 213.101562 363.121094 219.550781 363.121094 227.351562 C 363.121094 232.800781 365.273438 241.351562 367.621094 245.351562 C 368.171875 246.300781 368.621094 247.148438 368.621094 247.300781 C 368.621094 247.398438 366.320312 247.5 363.519531 247.5 C 354.167969 247.5 348.964844 249.25 342.515625 254.449219 C 335.5625 260.050781 333.210938 264.101562 336.210938 265.199219 C 338.113281 265.898438 340.011719 264.898438 344.613281 260.75 C 348.867188 256.949219 353.667969 253.949219 357.570312 252.699219 C 360.121094 251.898438 360.769531 251.898438 369.074219 252.648438 C 379.074219 253.601562 384.429688 253.75 384.878906 253 C 385.476562 252 382.828125 250.101562 380.328125 249.75 C 378.976562 249.550781 377.074219 248.949219 376.125 248.398438 C 374.476562 247.5 374.273438 247.148438 372.925781 241.851562 C 370.574219 232.851562 370.023438 229.148438 370.324219 224.949219 C 370.824219 218.398438 373.175781 210.949219 375.925781 206.898438 C 377.777344 204.25 379.726562 203.5 384.976562 203.5 C 388.578125 203.5 389.828125 203.300781 391.628906 202.351562 C 394.730469 200.800781 395.882812 199 395.78125 195.949219 C 395.78125 194.550781 395.582031 193.300781 395.429688 193.148438 C 395.332031 193 393.128906 193.25 390.628906 193.75 C 383.425781 195.050781 379.625 193.800781 371.074219 187.199219 C 363.171875 181.101562 360.21875 179.5 356.867188 179.5 C 356.019531 179.5 354.867188 179.800781 354.316406 180.199219 Z M 354.316406 180.199219 "/>
<path style=" stroke:none;fill-rule:nonzero;fill:#ff55f8; fill-opacity:1;" d="M 388.980469 379.851562 C 388.328125 380.449219 388.628906 382.351562 390.179688 387.050781 C 392.730469 394.898438 392.03125 401.5 388.128906 405.601562 C 386.027344 407.800781 385.679688 407.851562 377.875 406.949219 C 370.875 406.101562 368.472656 406.851562 363.671875 411.25 C 360.871094 413.800781 359.570312 414.601562 357.269531 415.25 C 347.066406 418.050781 344.113281 419.300781 344.113281 420.699219 C 344.113281 421.75 347.066406 422.699219 350.117188 422.648438 C 353.769531 422.5 358.46875 421 366.621094 417.351562 C 375.074219 413.5 376.523438 413.398438 382.378906 416.300781 L 386.378906 418.25 L 395.882812 418.199219 C 414.988281 418.050781 422.441406 416.199219 432.945312 409.148438 C 440.097656 404.300781 441.648438 402.199219 441.648438 397.449219 C 441.648438 393 439.597656 393.648438 433.34375 400.101562 C 430.792969 402.699219 428.09375 404.898438 426.242188 405.898438 C 419.738281 409.351562 407.285156 412.5 400.03125 412.5 C 394.730469 412.5 394.28125 412.199219 395.882812 410 C 398.582031 406.300781 399.332031 403.351562 399.332031 396 C 399.332031 388.300781 398.78125 385.75 396.53125 383.199219 C 394.179688 380.550781 390.078125 378.699219 388.980469 379.851562 Z M 388.980469 379.851562 "/>
<path style=" stroke:none;fill-rule:nonzero;fill:#ff55f8; fill-opacity:1;" d="M 476.007812 390.800781 C 474.957031 392.800781 475.859375 397.5 479.257812 407.648438 C 481.960938 415.75 482.308594 417.300781 482.511719 421.75 C 482.710938 426 482.609375 427.148438 481.710938 429.550781 C 480.210938 433.5 477.308594 436.601562 473.308594 438.601562 C 470.304688 440.050781 469.40625 440.25 464.753906 440.398438 C 457.050781 440.699219 451.199219 439.199219 446.046875 435.648438 C 443.546875 433.949219 442.246094 434.351562 438.445312 437.949219 C 430.945312 445.101562 421.441406 449.199219 407.886719 451.25 C 397.382812 452.800781 387.027344 451.949219 377.175781 448.648438 C 367.824219 445.550781 362.820312 442.601562 356.367188 436.449219 C 351.367188 431.699219 350.515625 431.199219 348.566406 432 C 346.566406 432.851562 346.214844 434.5 347.617188 436.75 C 349.015625 439 355.566406 443.898438 362.519531 447.898438 C 367.824219 450.949219 368.023438 451.148438 368.574219 453.25 C 369.472656 456.800781 369.273438 463.398438 368.171875 465.800781 C 367.070312 468.199219 365.570312 469.449219 359.371094 473 C 352.316406 477.050781 350.917969 478.800781 353.167969 480.800781 C 354.066406 481.601562 354.96875 481.75 358.570312 481.699219 C 367.023438 481.601562 372.125 478.25 374.222656 471.351562 C 375.125 468.25 375.226562 467.101562 374.976562 461.351562 L 374.675781 454.898438 L 376.023438 455.148438 C 376.773438 455.351562 378.976562 455.800781 380.875 456.199219 C 391.332031 458.5 407.335938 458.5 417.640625 456.300781 C 427.691406 454.148438 437.246094 450.199219 442.546875 446.050781 C 445.046875 444.050781 446.648438 443.449219 446.648438 444.5 C 446.648438 444.800781 448.398438 445.898438 450.550781 446.898438 L 454.402344 448.75 L 461.402344 448.75 C 469.304688 448.75 472.207031 448.199219 477.457031 445.699219 C 483.710938 442.75 487.5625 438 488.710938 431.75 C 489.414062 427.851562 489.011719 424.449219 486.363281 411.699219 C 483.410156 397.699219 482.261719 394.449219 478.960938 390.851562 C 477.410156 389.148438 476.859375 389.148438 476.007812 390.800781 Z M 476.007812 390.800781 "/>
</g>
</svg>
